<svg version="1.1" id="Layer_1" xmlns="http://www.w3.org/2000/svg" xmlns:xlink="http://www.w3.org/1999/xlink" x="0px" y="0px"
	 width="100%" viewBox="0 0 2866 2866" enable-background="new 0 0 2866 2866" xml:space="preserve">
<path fill="#DCE2E3" opacity="1.000000" stroke="none" 
	d="
M2.000000,1004.000000 
	C2.000000,669.333374 2.000000,335.666779 2.000000,2.000134 
	C957.333069,2.000090 1912.666138,2.000090 2867.999512,2.000045 
	C2867.999512,957.332947 2867.999512,1912.665894 2867.999756,2867.999023 
	C1912.667236,2867.999512 957.334473,2867.999512 2.000859,2867.999756 
	C2.000000,2247.000000 2.000000,1626.000000 2.000000,1004.000000 
M2176.962891,234.057480 
	C2076.812744,172.501816 1970.561646,124.255287 1858.438354,89.107048 
	C1724.023804,46.971016 1586.578491,24.539696 1445.396729,25.186928 
	C1368.925415,25.537504 1292.929932,30.277243 1217.395386,42.105396 
	C1143.530640,53.672066 1071.016113,70.941299 999.958557,94.242508 
	C997.216370,95.141747 994.595520,96.410812 990.800171,97.965492 
	C1022.542725,159.443405 1053.763428,220.305603 1085.578491,281.227203 
	C1091.625732,279.640747 1096.447144,278.495697 1101.198975,277.111633 
	C1183.058838,253.267654 1266.589355,238.579803 1351.572632,232.512024 
	C1401.459961,228.950104 1451.429199,228.641602 1501.425537,231.506348 
	C1544.375610,233.967392 1587.027954,238.652054 1629.479248,245.538498 
	C1739.035767,263.310669 1844.120117,295.807495 1944.621216,342.653717 
	C2125.699951,427.059174 2276.732178,548.962097 2397.395996,708.291260 
	C2506.732422,852.663391 2580.507812,1013.360413 2618.503662,1190.474487 
	C2629.771240,1242.997925 2637.249268,1296.062622 2641.495117,1349.575439 
	C2642.430908,1361.369507 2641.632324,1373.301270 2641.632324,1386.347656 
	C2532.156494,1384.363403 2423.868408,1378.680542 2314.658936,1373.832397 
	C2326.788330,1572.282104 2281.279053,1754.944580 2173.324707,1920.589111 
	C2065.450684,2086.109863 1917.318237,2202.284668 1731.457642,2268.889893 
	C1545.268188,2335.613281 1357.077026,2337.083740 1167.997925,2278.991455 
	C1130.213623,2338.097656 1092.940430,2396.404541 1054.997314,2455.759277 
	C1060.305542,2457.838623 1064.514648,2459.620850 1068.813477,2461.151611 
	C1196.994873,2506.790771 1328.972046,2528.541260 1465.125854,2524.615234 
	C1506.143188,2523.432129 1546.912720,2520.059570 1587.539917,2514.418213 
	C1672.759155,2502.584717 1755.372681,2480.766113 1835.228516,2448.908691 
	C2008.036133,2379.970215 2154.276367,2274.177246 2272.709229,2130.574219 
	C2396.567383,1980.393066 2473.298096,1808.579590 2506.296143,1616.972290 
	C2507.856934,1607.909668 2509.576416,1598.874146 2511.435059,1588.654419 
	C2620.830322,1592.286255 2729.216309,1597.974854 2837.958984,1600.196411 
	C2838.665283,1597.136963 2839.447510,1594.934570 2839.651367,1592.679810 
	C2841.693115,1570.121338 2844.182617,1547.585815 2845.502686,1524.982910 
	C2848.438477,1474.723633 2848.944580,1424.444580 2846.631348,1374.102783 
	C2843.797607,1312.434448 2837.051758,1251.266113 2826.361084,1190.484131 
	C2805.115967,1069.695068 2768.651123,953.658630 2716.917480,842.527039 
	C2638.193604,673.416748 2530.886475,524.993530 2393.720459,398.311890 
	C2327.153320,336.832642 2255.264893,282.432922 2176.962891,234.057480 
M384.232544,495.240204 
	C381.601562,498.247070 378.990143,501.271301 376.336823,504.258331 
	C324.195587,562.956970 277.484100,625.727600 236.128159,692.435120 
	C148.356110,834.012024 87.215576,986.308838 53.094425,1149.394043 
	C38.401329,1219.621094 28.565466,1290.513428 25.729277,1362.236816 
	C24.492317,1393.517822 24.877190,1424.861938 24.442465,1456.176270 
	C23.840195,1499.559082 27.010357,1542.715576 31.542650,1585.828247 
	C38.275986,1649.878418 49.637440,1713.086304 65.142441,1775.564087 
	C94.350113,1893.256592 137.888809,2005.389648 195.911163,2111.882812 
	C273.016876,2253.401611 371.459595,2378.098389 491.054047,2486.105713 
	C492.911316,2487.782959 495.084686,2489.110352 497.813324,2491.118408 
	C535.124939,2432.712158 571.996155,2374.995361 608.929382,2317.181396 
	C426.919678,2142.220947 307.797180,1932.988037 255.751755,1686.798584 
	C203.793304,1441.020386 226.025558,1201.443970 323.338409,969.813599 
	C420.789642,737.854065 577.091797,554.758301 789.143494,417.369629 
	C802.134827,442.325531 814.733887,466.465515 827.274658,490.635773 
	C839.859497,514.891174 852.392395,539.173645 864.936646,563.450073 
	C877.481018,587.726624 889.829590,612.106567 902.599060,636.264160 
	C915.267883,660.231506 926.949524,684.746277 940.422058,708.577759 
	C1106.359009,599.759583 1286.534668,546.671082 1483.956421,557.720886 
	C1681.523193,568.778809 1856.575684,638.529114 2007.300049,766.567200 
	C2157.788086,894.404419 2252.699219,1056.696167 2297.424805,1248.953613 
	C2367.334961,1252.127808 2436.399414,1255.263672 2506.953125,1258.467163 
	C2492.963379,1174.234131 2469.777100,1094.540527 2437.348877,1017.559448 
	C2374.400146,868.127380 2283.068604,738.657776 2162.481201,630.158813 
	C2040.846191,520.717224 1901.087524,443.051147 1744.373169,396.694794 
	C1502.744629,325.220642 1264.685059,338.757812 1030.102661,431.320343 
	C979.865723,334.038544 930.101929,237.672760 880.103149,140.852051 
	C875.877563,142.498688 872.785767,143.579712 869.793518,144.888153 
	C824.565979,164.665009 780.521545,186.801468 737.622681,211.220825 
	C605.014282,286.705566 487.567383,381.071655 384.232544,495.240204 
M1482.576172,2643.621094 
	C1445.941162,2643.227783 1409.286865,2643.447266 1372.676025,2642.289062 
	C1324.331055,2640.760254 1276.426758,2634.557617 1228.789917,2626.264160 
	C1108.394287,2605.302246 994.037170,2566.392090 885.296387,2510.777832 
	C883.000122,2509.603271 880.837341,2508.167480 878.057922,2506.526367 
	C907.771179,2460.480469 937.267761,2414.942871 966.584412,2369.290039 
	C996.023926,2323.446289 1025.523193,2277.636963 1054.892334,2231.088867 
	C876.687073,2142.426025 741.174133,2011.751587 651.937195,1835.069824 
	C562.789124,1658.563965 534.940247,1472.116699 571.351074,1277.547729 
	C607.666260,1083.489746 698.116089,918.328308 844.173157,783.685120 
	C812.064148,721.664856 780.106140,659.936462 747.502136,596.960144 
	C629.927612,694.880615 537.152771,810.935364 469.166321,946.365479 
	C367.575287,1148.736450 330.302521,1362.774536 362.786469,1586.947021 
	C404.634613,1875.741455 543.399048,2110.164062 770.753418,2294.195801 
	C708.987427,2384.487305 650.051453,2476.304688 591.746399,2568.828857 
	C594.049255,2570.720947 595.515381,2572.050293 597.103638,2573.212646 
	C686.797241,2638.874756 783.390381,2692.388184 885.455261,2736.088135 
	C990.363831,2781.005615 1099.229858,2812.419189 1211.916382,2830.710205 
	C1264.924805,2839.314209 1318.211548,2845.449951 1371.824219,2847.364258 
	C1431.099854,2849.480469 1490.414429,2849.509521 1549.643677,2844.409912 
	C1596.138550,2840.406250 1642.356445,2834.640137 1688.277222,2826.343018 
	C1834.380005,2799.944336 1972.808105,2751.491211 2103.606934,2681.372314 
	C2275.115479,2589.429443 2421.563477,2467.290283 2542.475586,2314.800537 
	C2679.197021,2142.373047 2770.020020,1948.154785 2817.000488,1733.305542 
	C2817.744141,1729.903809 2817.916016,1726.377197 2818.479492,1721.920654 
	C2749.119629,1718.680176 2681.001709,1715.497681 2612.361572,1712.290771 
	C2611.308350,1716.138550 2610.375488,1719.283325 2609.587646,1722.463867 
	C2588.610352,1807.165649 2559.604248,1888.986206 2521.173584,1967.367432 
	C2442.488525,2127.848633 2333.847900,2264.543945 2194.623535,2376.685059 
	C2061.143799,2484.198730 1911.197021,2559.452637 1745.771973,2603.947754 
	C1660.179199,2626.969971 1572.969360,2639.553223 1482.576172,2643.621094 
z"/>
<path fill="#465EFF" opacity="1.000000" stroke="none" 
	d="
M2177.579102,234.444321 
	C2255.264893,282.432922 2327.153320,336.832642 2393.720459,398.311890 
	C2530.886475,524.993530 2638.193604,673.416748 2716.917480,842.527039 
	C2768.651123,953.658630 2805.115967,1069.695068 2826.361084,1190.484131 
	C2837.051758,1251.266113 2843.797607,1312.434448 2846.631348,1374.102783 
	C2848.944580,1424.444580 2848.438477,1474.723633 2845.502686,1524.982910 
	C2844.182617,1547.585815 2841.693115,1570.121338 2839.651367,1592.679810 
	C2839.447510,1594.934570 2838.665283,1597.136963 2837.958984,1600.196411 
	C2729.216309,1597.974854 2620.830322,1592.286255 2511.435059,1588.654419 
	C2509.576416,1598.874146 2507.856934,1607.909668 2506.296143,1616.972290 
	C2473.298096,1808.579590 2396.567383,1980.393066 2272.709229,2130.574219 
	C2154.276367,2274.177246 2008.036133,2379.970215 1835.228516,2448.908691 
	C1755.372681,2480.766113 1672.759155,2502.584717 1587.539917,2514.418213 
	C1546.912720,2520.059570 1506.143188,2523.432129 1465.125854,2524.615234 
	C1328.972046,2528.541260 1196.994873,2506.790771 1068.813477,2461.151611 
	C1064.514648,2459.620850 1060.305542,2457.838623 1054.997314,2455.759277 
	C1092.940430,2396.404541 1130.213623,2338.097656 1167.997925,2278.991455 
	C1357.077026,2337.083740 1545.268188,2335.613281 1731.457642,2268.889893 
	C1917.318237,2202.284668 2065.450684,2086.109863 2173.324707,1920.589111 
	C2281.279053,1754.944580 2326.788330,1572.282104 2314.658936,1373.832397 
	C2423.868408,1378.680542 2532.156494,1384.363403 2641.632324,1386.347656 
	C2641.632324,1373.301270 2642.430908,1361.369507 2641.495117,1349.575439 
	C2637.249268,1296.062622 2629.771240,1242.997925 2618.503662,1190.474487 
	C2580.507812,1013.360413 2506.732422,852.663391 2397.395996,708.291260 
	C2276.732178,548.962097 2125.699951,427.059174 1944.621216,342.653717 
	C1844.120117,295.807495 1739.035767,263.310669 1629.479248,245.538498 
	C1587.027954,238.652054 1544.375610,233.967392 1501.425537,231.506348 
	C1451.429199,228.641602 1401.459961,228.950104 1351.572632,232.512024 
	C1266.589355,238.579803 1183.058838,253.267654 1101.198975,277.111633 
	C1096.447144,278.495697 1091.625732,279.640747 1085.578491,281.227203 
	C1053.763428,220.305603 1022.542725,159.443405 990.800171,97.965492 
	C994.595520,96.410812 997.216370,95.141747 999.958557,94.242508 
	C1071.016113,70.941299 1143.530640,53.672066 1217.395386,42.105396 
	C1292.929932,30.277243 1368.925415,25.537504 1445.396729,25.186928 
	C1586.578491,24.539696 1724.023804,46.971016 1858.438354,89.107048 
	C1970.561646,124.255287 2076.812744,172.501816 2177.579102,234.444321 
z"/>
<path fill="#465EFF" opacity="1.000000" stroke="none" 
	d="
M384.708435,494.720062 
	C487.567383,381.071655 605.014282,286.705566 737.622681,211.220825 
	C780.521545,186.801468 824.565979,164.665009 869.793518,144.888153 
	C872.785767,143.579712 875.877563,142.498688 880.103149,140.852051 
	C930.101929,237.672760 979.865723,334.038544 1030.102661,431.320343 
	C1264.685059,338.757812 1502.744629,325.220642 1744.373169,396.694794 
	C1901.087524,443.051147 2040.846191,520.717224 2162.481201,630.158813 
	C2283.068604,738.657776 2374.400146,868.127380 2437.348877,1017.559448 
	C2469.777100,1094.540527 2492.963379,1174.234131 2506.953125,1258.467163 
	C2436.399414,1255.263672 2367.334961,1252.127808 2297.424805,1248.953613 
	C2252.699219,1056.696167 2157.788086,894.404419 2007.300049,766.567200 
	C1856.575684,638.529114 1681.523193,568.778809 1483.956421,557.720886 
	C1286.534668,546.671082 1106.359009,599.759583 940.422058,708.577759 
	C926.949524,684.746277 915.267883,660.231506 902.599060,636.264160 
	C889.829590,612.106567 877.481018,587.726624 864.936646,563.450073 
	C852.392395,539.173645 839.859497,514.891174 827.274658,490.635773 
	C814.733887,466.465515 802.134827,442.325531 789.143494,417.369629 
	C577.091797,554.758301 420.789642,737.854065 323.338409,969.813599 
	C226.025558,1201.443970 203.793304,1441.020386 255.751755,1686.798584 
	C307.797180,1932.988037 426.919678,2142.220947 608.929382,2317.181396 
	C571.996155,2374.995361 535.124939,2432.712158 497.813324,2491.118408 
	C495.084686,2489.110352 492.911316,2487.782959 491.054047,2486.105713 
	C371.459595,2378.098389 273.016876,2253.401611 195.911163,2111.882812 
	C137.888809,2005.389648 94.350113,1893.256592 65.142441,1775.564087 
	C49.637440,1713.086304 38.275986,1649.878418 31.542650,1585.828247 
	C27.010357,1542.715576 23.840195,1499.559082 24.442465,1456.176270 
	C24.877190,1424.861938 24.492317,1393.517822 25.729277,1362.236816 
	C28.565466,1290.513428 38.401329,1219.621094 53.094425,1149.394043 
	C87.215576,986.308838 148.356110,834.012024 236.128159,692.435120 
	C277.484100,625.727600 324.195587,562.956970 376.336823,504.258331 
	C378.990143,501.271301 381.601562,498.247070 384.708435,494.720062 
z"/>
<path fill="#465EFF" opacity="1.000000" stroke="none" 
	d="
M1483.526367,2643.591797 
	C1572.969360,2639.553223 1660.179199,2626.969971 1745.771973,2603.947754 
	C1911.197021,2559.452637 2061.143799,2484.198730 2194.623535,2376.685059 
	C2333.847900,2264.543945 2442.488525,2127.848633 2521.173584,1967.367432 
	C2559.604248,1888.986206 2588.610352,1807.165649 2609.587646,1722.463867 
	C2610.375488,1719.283325 2611.308350,1716.138550 2612.361572,1712.290771 
	C2681.001709,1715.497681 2749.119629,1718.680176 2818.479492,1721.920654 
	C2817.916016,1726.377197 2817.744141,1729.903809 2817.000488,1733.305542 
	C2770.020020,1948.154785 2679.197021,2142.373047 2542.475586,2314.800537 
	C2421.563477,2467.290283 2275.115479,2589.429443 2103.606934,2681.372314 
	C1972.808105,2751.491211 1834.380005,2799.944336 1688.277222,2826.343018 
	C1642.356445,2834.640137 1596.138550,2840.406250 1549.643677,2844.409912 
	C1490.414429,2849.509521 1431.099854,2849.480469 1371.824219,2847.364258 
	C1318.211548,2845.449951 1264.924805,2839.314209 1211.916382,2830.710205 
	C1099.229858,2812.419189 990.363831,2781.005615 885.455261,2736.088135 
	C783.390381,2692.388184 686.797241,2638.874756 597.103638,2573.212646 
	C595.515381,2572.050293 594.049255,2570.720947 591.746399,2568.828857 
	C650.051453,2476.304688 708.987427,2384.487305 770.753418,2294.195801 
	C543.399048,2110.164062 404.634613,1875.741455 362.786469,1586.947021 
	C330.302521,1362.774536 367.575287,1148.736450 469.166321,946.365479 
	C537.152771,810.935364 629.927612,694.880615 747.502136,596.960144 
	C780.106140,659.936462 812.064148,721.664856 844.173157,783.685120 
	C698.116089,918.328308 607.666260,1083.489746 571.351074,1277.547729 
	C534.940247,1472.116699 562.789124,1658.563965 651.937195,1835.069824 
	C741.174133,2011.751587 876.687073,2142.426025 1054.892334,2231.088867 
	C1025.523193,2277.636963 996.023926,2323.446289 966.584412,2369.290039 
	C937.267761,2414.942871 907.771179,2460.480469 878.057922,2506.526367 
	C880.837341,2508.167480 883.000122,2509.603271 885.296387,2510.777832 
	C994.037170,2566.392090 1108.394287,2605.302246 1228.789917,2626.264160 
	C1276.426758,2634.557617 1324.331055,2640.760254 1372.676025,2642.289062 
	C1409.286865,2643.447266 1445.941162,2643.227783 1483.526367,2643.591797 
z"/>
</svg>