<svg xmlns="http://www.w3.org/2000/svg" version="1.1" xmlns:xlink="http://www.w3.org/1999/xlink" viewBox="0 0 33.14508637525372 33.537286375253714"><g transform="matrix(0.8571428571428571,0,0,0.8571428571428571,4.73501233932196,28.652374035931757)"><g transform="matrix(-1,0,0,1,27.620905312711432,0)" clip-path="url(#SvgjsClipPath17270)"><g clip-path="url(#SvgjsClipPath17268144a9bd2-af44-407f-8068-f5bb032ccc24)"><path d=" M 20.568598795129542 -2.018733559757191 C 21.093169576512523 -2.3052589422091465 21.597219206044453 -2.627850705109612 22.077113558248556 -2.9841830081534297 L 20.96835520735617 -4.718974985740456 L 20.96835520735617 -4.718974985740456 L 20.82504630486002 -4.915081904945946 L 20.44791761408007 -5.488317514931218 L 20.323465146122714 -5.680653147228899 L 20.50071563078935 -5.823962049725225 C 22.23672172762969 -7.239439758693525 23.482432827025345 -9.166069213267452 24.060810471750784 -11.330040935110084 C 24.637422692342458 -13.486577744774518 24.517300213388022 -15.770224872147702 23.717623363140852 -17.85436728560037 C 23.372715455551706 -18.75845674770307 22.90577738460818 -19.611126268556713 22.32978978107131 -20.388672087640515 C 21.81660796195552 -21.088334529349947 21.218703061667295 -21.721708364401064 20.54974236059075 -22.27431554153945 L 19.603149346733616 -20.445241391257486 C 20.075457017647434 -20.017709569395223 20.498001379829073 -19.538235577578273 20.862759173938077 -19.01592365320208 C 21.268589809719334 -18.430509994072374 21.600467411966086 -17.79715579131134 21.850836343780994 -17.130280199303172 C 22.64288370133771 -15.066439558391723 22.60775817545616 -12.77652546726738 21.752782884178515 -10.737948890585823 C 20.941679267052635 -8.789200943804946 19.44239008929534 -7.206692492080837 17.540255408168175 -6.2916016262921595 L 18.747067218663354 -4.405958172393245 L 19.124195909443305 -3.8289512755001773 L 19.278818672662947 -3.5913602003089125 L 19.02237116293278 -3.4631364454437907 C 18.8564345389898 -3.383939420380038 18.690497915046503 -3.3047423953162713 18.528332578011405 -3.233087944068121 C 18.366167240976306 -3.1614334928199668 18.185145469401785 -3.0897790415718056 18.02298013236637 -3.025667164139243 C 15.098381700576839 -1.905703918112831 11.848159605477612 -1.9966287115874337 8.990747988190607 -3.2783433869617014 C 6.129019575708359 -4.551193786300736 3.89333512980252 -6.9131190661282815 2.779438451047599 -9.84038260652995 C 2.670071130721467 -10.123229124614785 2.5757889580265583 -10.409846929607426 2.4890493591471037 -10.700236021507862 C 2.421166194806914 -10.918970662160135 2.364596891189749 -11.141476589720217 2.311798874480625 -11.363982517280277 L 0.28284651808535494 -11.269700344585338 C 0.34695839551781765 -10.956683531238124 0.4223841336737762 -10.643666717890891 0.5128950194608008 -10.326878617635874 C 0.6260336266949743 -9.927122205409304 0.758028668467784 -9.527365793182728 0.9088801447797011 -9.127609380956159 C 2.213953245249943 -5.704919357517866 4.827372883980746 -2.942238991756586 8.17237872919856 -1.4492692366797364 C 11.513646474775877 0.04760525411492367 15.313498290552468 0.15210117904877407 18.73198207103213 -1.158880144779289 C 19.361189783381178 -1.400536535513769 19.97242184968051 -1.6866183479878565 20.561056221314402 -2.014962272849406 Z M 13.648287319320618 -27.867134025803637 C 15.185600442078496 -27.88643559767335 16.71528566721969 -27.64805965008886 18.173831608677975 -27.161903374045448 L 17.24232374245191 -25.359228232118053 C 16.034073768797118 -25.72602188867946 14.774811685248162 -25.89663980495403 13.512520990639922 -25.864580677762977 C 12.178016259597658 -25.82878003175094 10.85934356810657 -25.566065743117278 9.613010327976912 -25.087695574756616 C 7.5044534185179055 -24.288335889415926 5.671237470651884 -22.89771064896318 4.333208657059969 -21.08258887867531 C 2.981523948696995 -19.265711265012868 2.178033617958148 -17.099951497304723 2.017638495671931 -14.841109046269883 L 2.017638495671931 -14.554491241277242 L 2.3042563006646994 -14.554491241277242 L 2.9868592309760538 -14.58466153653962 L 3.2282215930751526 -14.58466153653962 L 3.2282215930751526 -14.58466153653962 L 5.223232367300249 -14.675172422326773 C 5.179390351551097 -14.095515680699675 5.19582059301815 -13.512874040982242 5.2722590971013314 -12.936609157831969 C 5.357762987750308 -12.258977241921622 5.52491340287942 -11.594174454475954 5.7700689689305955 -10.956683531238134 C 6.565943601555878 -8.867727034052134 8.144719180480827 -7.171253532790924 10.17116079033091 -6.22748974885959 C 12.133454881028543 -5.307297990910087 14.37112748534887 -5.163149304177825 16.435268344182887 -5.823962049725235 L 17.544026695075587 -4.089170072138227 C 14.929622160340719 -3.107802569316455 12.033648213488528 -3.1972430374925267 9.484786573111673 -4.338075008052879 C 6.9139355931956485 -5.4856021354508755 4.905605232181156 -7.6092757942260825 3.9032819495707383 -10.240139018756508 L 3.9032819495707383 -10.240139018756508 C 3.775058194705656 -10.583326127366117 3.6619195874716395 -10.930284522883515 3.5676374147767307 -11.281014205308715 C 3.471970607523184 -11.631141114124869 3.3951771791308087 -11.98615335685695 3.3375889134011274 -12.344517113307697 L 3.2998760443232267 -12.570794327775573 L 3.073598829855351 -12.570794327775573 L 2.3947671864517237 -12.540624032513197 L 1.813989002650733 -12.514225024158605 L 0.09428217269506597 -12.457655720541636 C -0.2566956187713443 -15.474290247919178 0.3953697184564842 -18.52256316585397 1.949755331331584 -21.131615608476686 C 3.533657209961405 -23.803728126773848 5.9774409415279015 -25.859272005447163 8.881380667864475 -26.962025167932154 C 10.40294972740211 -27.548989381469475 12.0175130155005 -27.858106719855414 13.648287319320774 -27.874676599619228 Z M 23.702538215509627 -23.696090705779206 C 25.020240835100342 -22.350659320207217 26.047186728368537 -20.748623726709095 26.719567741747657 -18.989524644847485 C 27.74234549682785 -16.328939151743604 27.911067108260646 -13.415855079349994 27.20229246594617 -10.654980578614243 C 26.520968169328608 -7.982041492208893 25.056707979614682 -5.573563296751175 22.997307563751438 -3.738440389712995 L 21.90363436048996 -5.450604645853218 C 23.585068972930564 -7.0337314856568085 24.765175225060577 -9.07531530184152 25.29779257750794 -11.322498361294482 C 25.852317729564483 -13.631864437439805 25.69454314061978 -16.055019165983147 24.84523814857219 -18.27298013236588 C 24.409767202504934 -19.408281821129105 23.803109620577768 -20.47025054420893 23.04633429355268 -21.4220047003771 C 22.28865647793106 -22.371127369496996 21.389353337219916 -23.197926579486154 20.380034449739565 -23.873341190445696 L 20.142443374548353 -24.031735240573216 L 20.006677045867658 -23.771516443935177 L 19.693660232520326 -23.168110538687518 L 18.66409890669147 -21.176871051370266 C 17.553238830150605 -21.930492074823224 16.28318682989238 -22.41708720093839 14.953152589418277 -22.59864621561006 C 13.528521887699297 -22.789428788728962 12.078791225772237 -22.619558738002265 10.73685382650068 -22.104607630688527 C 9.369904786999378 -21.584933727217727 8.15863235114188 -20.72419029209069 7.218243141525031 -19.604244410818573 C 6.319169468451213 -18.534180255371616 5.69285534056791 -17.262141437790277 5.392940278150959 -15.897069380453283 L 3.3375889134011274 -15.802787207758326 C 3.6365382993241124 -17.581289033450563 4.38128994052676 -19.25503401106606 5.502307598477091 -20.66774731881752 C 6.685807740869995 -22.15639425043645 8.249368335955838 -23.297793484849056 10.027851887834762 -23.97139465004848 C 11.231196700659094 -24.435282176191063 12.509477962465436 -24.67432077214885 13.799138795632377 -24.67662530180668 C 15.08851742408659 -24.675012843808958 16.366698722270975 -24.437271122346633 17.57042570343015 -23.975165936956266 L 17.785389057174687 -23.892197624984725 L 17.89098509059309 -24.095847118005796 L 18.20400190394042 -24.70302431016126 L 18.39633753623812 -25.080153000941053 L 18.39633753623812 -25.080153000941053 L 19.256190951216112 -26.739519240372104 C 20.922239306062185 -26.02406139354009 22.43259997760261 -24.990252180704303 23.702538215509627 -23.696090705779238 Z" fill="#455eff" transform="matrix(1,0,0,1,0,0)" fill-rule="evenodd"></path></g></g><g><path d=" M 0.02295 0.09855000000000003 Q 0.02295 0.09750000000000003 0.02415 0.09690000000000003 Q 0.02535 0.09630000000000002 0.0279 0.09585000000000002 Q 0.0396 0.09375000000000003 0.0396 0.08325000000000002 L 0.0396 0.06105000000000002 Q 0.0396 0.05850000000000002 0.038325000000000005 0.05527500000000002 Q 0.03705000000000001 0.05205000000000002 0.03585 0.04995000000000002 L 0.0183 0.021150000000000016 Q 0.010050000000000002 0.007950000000000013 0.00495 0.006450000000000011 Q 0.0024000000000000002 0.005550000000000013 0.0012000000000000001 0.004800000000000013 Q 0 0.004050000000000012 0 0.003150000000000014 Q 0 0.0015000000000000152 0.004350000000000001 0.0015000000000000152 L 0.011250000000000001 0.0016500000000000126 Q 0.01785 0.0019500000000000212 0.021900000000000003 0.0019500000000000212 L 0.029100000000000004 0.00180000000000001 Q 0.030900000000000004 0.0016500000000000126 0.033900000000000007 0.0016500000000000126 Q 0.038250000000000006 0.0016500000000000126 0.038250000000000006 0.0033000000000000113 Q 0.038250000000000006 0.005100000000000021 0.0333 0.006300000000000014 Q 0.030750000000000003 0.006900000000000017 0.029625000000000002 0.00772500000000001 Q 0.0285 0.008550000000000016 0.0285 0.010050000000000017 Q 0.0285 0.01200000000000001 0.03045 0.01545000000000002 L 0.044250000000000005 0.04095000000000002 Q 0.04725000000000001 0.04665000000000002 0.04845000000000001 0.04665000000000002 Q 0.049350000000000005 0.04665000000000002 0.05025 0.04552500000000002 Q 0.05115000000000001 0.04440000000000002 0.0534 0.04095000000000002 Q 0.05790000000000001 0.033750000000000016 0.06330000000000001 0.02415000000000002 Q 0.06390000000000001 0.022950000000000012 0.066 0.01935000000000002 Q 0.06870000000000001 0.014850000000000016 0.06870000000000001 0.011700000000000016 Q 0.06870000000000001 0.007350000000000009 0.06255000000000001 0.006450000000000011 Q 0.0609 0.0061500000000000166 0.059250000000000004 0.0052500000000000185 Q 0.057600000000000005 0.0043500000000000205 0.057600000000000005 0.0034500000000000225 Q 0.057600000000000005 0.00180000000000001 0.061950000000000005 0.00180000000000001 L 0.0732 0.0019500000000000212 Q 0.07740000000000001 0.0019500000000000212 0.08310000000000001 0.0016500000000000126 L 0.0888 0.0015000000000000152 Q 0.09315000000000001 0.0015000000000000152 0.09315000000000001 0.003150000000000014 Q 0.09315000000000001 0.004050000000000012 0.09112500000000001 0.00495000000000001 Q 0.08910000000000001 0.005850000000000022 0.08520000000000001 0.006900000000000017 Q 0.0816 0.007950000000000013 0.079125 0.01065000000000002 Q 0.07665000000000001 0.013350000000000015 0.07200000000000001 0.020550000000000013 Q 0.06405000000000001 0.03285000000000002 0.05535 0.04695000000000002 Q 0.05265 0.051450000000000023 0.052125000000000005 0.05355000000000002 Q 0.05160000000000001 0.05565000000000002 0.05160000000000001 0.06045000000000002 L 0.05160000000000001 0.08325000000000002 Q 0.05160000000000001 0.08835000000000003 0.05467500000000001 0.09157500000000002 Q 0.05775 0.09480000000000002 0.06345 0.09585000000000002 Q 0.066 0.09630000000000002 0.06720000000000001 0.09690000000000003 Q 0.0684 0.09750000000000003 0.0684 0.09855000000000003 Q 0.0684 0.10020000000000003 0.06405000000000001 0.10020000000000003 Q 0.0585 0.10020000000000003 0.054450000000000005 0.09975000000000002 Q 0.04965000000000001 0.09945000000000002 0.04650000000000001 0.09945000000000002 Q 0.04275 0.09945000000000002 0.03735 0.09975000000000002 Q 0.032850000000000004 0.10020000000000003 0.0273 0.10020000000000003 Q 0.02295 0.10020000000000003 0.02295 0.09855000000000003 M 0.11681510156250002 0.09765000000000003 Q 0.10999010156250003 0.09375000000000003 0.10601510156250002 0.08685000000000002 Q 0.10204010156250003 0.07995000000000002 0.10204010156250003 0.07140000000000002 Q 0.10204010156250003 0.06315000000000001 0.10646510156250003 0.05520000000000002 Q 0.11089010156250002 0.04725000000000002 0.11846510156250002 0.04230000000000002 Q 0.12604010156250003 0.03735000000000002 0.13489010156250003 0.03735000000000002 Q 0.14344010156250003 0.03735000000000002 0.15049010156250003 0.04147500000000002 Q 0.15754010156250003 0.04560000000000002 0.16166510156250002 0.05257500000000002 Q 0.16579010156250001 0.05955000000000002 0.16579010156250001 0.06750000000000002 Q 0.16579010156250001 0.07650000000000003 0.16189010156250003 0.08430000000000003 Q 0.15799010156250004 0.09210000000000003 0.15034010156250002 0.09682500000000002 Q 0.14269010156250003 0.10155000000000003 0.13189010156250003 0.10155000000000003 Q 0.12364010156250002 0.10155000000000003 0.11681510156250002 0.09765000000000003 M 0.15049010156250003 0.08880000000000002 Q 0.15349010156250004 0.08295000000000002 0.15349010156250004 0.07110000000000002 Q 0.15349010156250004 0.06390000000000001 0.15079010156250003 0.05715000000000002 Q 0.14809010156250002 0.05040000000000002 0.14329010156250002 0.04620000000000002 Q 0.13849010156250002 0.042000000000000016 0.13234010156250003 0.042000000000000016 Q 0.1279901015625 0.042000000000000016 0.12484010156250003 0.04335000000000002 Q 0.12169010156250003 0.04470000000000002 0.11914010156250002 0.04800000000000002 Q 0.11644010156250002 0.051450000000000023 0.11539010156250003 0.05647500000000002 Q 0.11434010156250002 0.06150000000000002 0.11434010156250002 0.06795000000000002 Q 0.11434010156250002 0.07545000000000002 0.11704010156250003 0.08212500000000003 Q 0.11974010156250002 0.08880000000000002 0.12446510156250003 0.09292500000000002 Q 0.12919010156250002 0.09705000000000003 0.13504010156250001 0.09705000000000003 Q 0.14629010156250002 0.09705000000000003 0.15049010156250003 0.08880000000000002 M 0.24997536914062507 0.10110000000000002 L 0.2502753691406251 0.09705000000000003 Q 0.25072536914062504 0.09405000000000002 0.25072536914062504 0.09180000000000002 L 0.25072536914062504 0.09090000000000002 Q 0.24502536914062506 0.09660000000000002 0.23902536914062505 0.09907500000000002 Q 0.23302536914062505 0.10155000000000003 0.22597536914062505 0.10155000000000003 Q 0.21832536914062506 0.10155000000000003 0.21360036914062505 0.09690000000000003 Q 0.20887536914062507 0.09225000000000003 0.20887536914062507 0.08370000000000002 L 0.20887536914062507 0.05325000000000002 Q 0.20887536914062507 0.04995000000000002 0.20737536914062507 0.04800000000000002 Q 0.20587536914062507 0.04605000000000002 0.20242536914062506 0.04470000000000002 Q 0.20047536914062505 0.04410000000000002 0.20047536914062505 0.04230000000000002 Q 0.20047536914062505 0.04020000000000002 0.20272536914062506 0.03990000000000002 Q 0.20737536914062507 0.03960000000000002 0.21007536914062505 0.03915000000000002 Q 0.21277536914062506 0.03870000000000002 0.21757536914062506 0.03750000000000002 L 0.21877536914062506 0.03735000000000002 Q 0.22042536914062505 0.03735000000000002 0.22027536914062507 0.03945000000000002 Q 0.21937536914062505 0.046350000000000016 0.21937536914062505 0.05100000000000002 L 0.21937536914062505 0.08025000000000002 Q 0.21937536914062505 0.08565000000000002 0.22327536914062507 0.08977500000000002 Q 0.22717536914062506 0.09390000000000003 0.23197536914062505 0.09390000000000003 Q 0.23647536914062506 0.09390000000000003 0.23925036914062506 0.09337500000000003 Q 0.24202536914062506 0.09285000000000003 0.24457536914062505 0.09090000000000002 Q 0.24727536914062506 0.08895000000000003 0.24930036914062506 0.08632500000000003 Q 0.2513253691406251 0.08370000000000002 0.2513253691406251 0.07965000000000003 L 0.2513253691406251 0.05220000000000002 Q 0.2513253691406251 0.04815000000000002 0.24795036914062507 0.04642500000000002 Q 0.24457536914062505 0.04470000000000002 0.24127536914062506 0.04470000000000002 Q 0.23812536914062507 0.04470000000000002 0.23812536914062507 0.04215000000000002 Q 0.23812536914062507 0.03990000000000002 0.24127536914062506 0.03990000000000002 Q 0.24772536914062507 0.03975000000000002 0.25155036914062506 0.03922500000000002 Q 0.2553753691406251 0.03870000000000002 0.25972536914062505 0.03750000000000002 Q 0.26062536914062506 0.03720000000000002 0.26122536914062505 0.03720000000000002 Q 0.2619753691406251 0.03720000000000002 0.26257536914062507 0.03765000000000002 Q 0.26317536914062506 0.038100000000000016 0.26317536914062506 0.038850000000000016 L 0.26287536914062504 0.04020000000000002 Q 0.26257536914062507 0.04185000000000002 0.26220036914062506 0.04492500000000002 Q 0.26182536914062504 0.04800000000000002 0.26182536914062504 0.05055000000000002 L 0.26182536914062504 0.08520000000000003 Q 0.26182536914062504 0.09270000000000002 0.2645253691406251 0.09270000000000002 L 0.2679753691406251 0.09240000000000002 L 0.2714253691406251 0.09225000000000003 Q 0.27367536914062507 0.09225000000000003 0.27367536914062507 0.09420000000000002 Q 0.27367536914062507 0.09540000000000003 0.27315036914062507 0.09577500000000003 Q 0.2726253691406251 0.09615000000000003 0.2715753691406251 0.09630000000000002 Q 0.2664753691406251 0.09705000000000003 0.26257536914062507 0.09825000000000002 Q 0.25867536914062506 0.09945000000000002 0.25402536914062507 0.10140000000000002 Q 0.25222536914062504 0.10230000000000003 0.25102536914062507 0.10230000000000003 Q 0.24997536914062507 0.10230000000000003 0.24997536914062507 0.10110000000000002 M 0.3046080000000001 0.09825000000000002 Q 0.3046080000000001 0.09720000000000002 0.3053580000000001 0.09682500000000002 Q 0.3061080000000001 0.09645000000000002 0.30805800000000005 0.09585000000000002 Q 0.3137580000000001 0.09450000000000003 0.3137580000000001 0.09015000000000002 L 0.3137580000000001 0.05790000000000002 Q 0.3137580000000001 0.05340000000000002 0.3124080000000001 0.05062500000000002 Q 0.31105800000000006 0.04785000000000002 0.3076080000000001 0.04710000000000002 Q 0.30700800000000006 0.04695000000000002 0.3065580000000001 0.046350000000000016 Q 0.3061080000000001 0.04575000000000002 0.3061080000000001 0.045150000000000017 Q 0.3061080000000001 0.04455000000000002 0.3065580000000001 0.04402500000000002 Q 0.30700800000000006 0.04350000000000002 0.30745800000000006 0.04335000000000002 Q 0.31345800000000007 0.04140000000000002 0.3223080000000001 0.03600000000000002 Q 0.3239580000000001 0.03495000000000002 0.32455800000000007 0.03495000000000002 Q 0.3253080000000001 0.03495000000000002 0.3253080000000001 0.03600000000000002 Q 0.3253080000000001 0.040050000000000016 0.3248580000000001 0.04725000000000002 Q 0.3248580000000001 0.04755000000000002 0.32515800000000006 0.04755000000000002 Q 0.3289080000000001 0.04305000000000002 0.3335580000000001 0.04020000000000002 Q 0.33820800000000006 0.03735000000000002 0.3424080000000001 0.03735000000000002 Q 0.3455580000000001 0.03735000000000002 0.3475830000000001 0.03870000000000002 Q 0.3496080000000001 0.040050000000000016 0.3496080000000001 0.04215000000000002 Q 0.3496080000000001 0.04455000000000002 0.34773300000000007 0.04725000000000002 Q 0.3458580000000001 0.04995000000000002 0.34375800000000006 0.04995000000000002 Q 0.34225800000000006 0.04995000000000002 0.3395580000000001 0.04860000000000002 Q 0.3391080000000001 0.04845000000000002 0.3375330000000001 0.04785000000000002 Q 0.3359580000000001 0.04725000000000002 0.3347580000000001 0.04725000000000002 Q 0.3304080000000001 0.04725000000000002 0.3274080000000001 0.05010000000000002 Q 0.3244080000000001 0.05295000000000002 0.3244080000000001 0.05985000000000002 L 0.3244080000000001 0.09015000000000002 Q 0.3244080000000001 0.09210000000000003 0.3263580000000001 0.09337500000000003 Q 0.3283080000000001 0.09465000000000003 0.3323580000000001 0.09585000000000002 Q 0.33415800000000007 0.09645000000000002 0.3349830000000001 0.09690000000000003 Q 0.3358080000000001 0.09735000000000002 0.3358080000000001 0.09825000000000002 Q 0.3358080000000001 0.09990000000000003 0.3328080000000001 0.09990000000000003 Q 0.3287580000000001 0.09990000000000003 0.3257580000000001 0.09945000000000002 Q 0.32215800000000006 0.09915000000000003 0.3197580000000001 0.09915000000000003 Q 0.3173580000000001 0.09915000000000003 0.31405800000000006 0.09945000000000002 Q 0.3116580000000001 0.09990000000000003 0.3076080000000001 0.09990000000000003 Q 0.3046080000000001 0.09990000000000003 0.3046080000000001 0.09825000000000002 M 0.4650294873046876 0.09532500000000002 Q 0.4525794873046876 0.08895000000000003 0.4450044873046876 0.07740000000000002 Q 0.4374294873046876 0.06585000000000002 0.4374294873046876 0.05100000000000002 Q 0.4374294873046876 0.03675000000000002 0.44537948730468757 0.025125000000000022 Q 0.4533294873046876 0.013500000000000012 0.4666794873046876 0.00675000000000002 Q 0.4800294873046876 1.3877787807814457e-17 0.4953294873046876 1.3877787807814457e-17 Q 0.5031294873046877 1.3877787807814457e-17 0.5080044873046876 0.0008250000000000202 Q 0.5128794873046876 0.0016500000000000126 0.5220294873046876 0.0039000000000000146 Q 0.5241294873046876 0.004500000000000018 0.5251044873046876 0.005700000000000011 Q 0.5260794873046876 0.006900000000000017 0.5263794873046876 0.009000000000000022 Q 0.5275794873046876 0.020700000000000024 0.5277294873046876 0.026250000000000023 Q 0.5278794873046876 0.02715000000000002 0.5270544873046876 0.027825000000000016 Q 0.5262294873046875 0.02850000000000001 0.5251794873046876 0.02850000000000001 Q 0.5232294873046877 0.02850000000000001 0.5226294873046876 0.02640000000000002 Q 0.5209794873046876 0.019950000000000023 0.5189544873046876 0.016125000000000014 Q 0.5169294873046876 0.01230000000000002 0.5133294873046876 0.009750000000000023 Q 0.5095794873046876 0.007350000000000009 0.5042544873046876 0.006000000000000019 Q 0.4989294873046876 0.004650000000000015 0.4927794873046876 0.004650000000000015 Q 0.4813794873046876 0.004650000000000015 0.4722294873046876 0.01065000000000002 Q 0.4630794873046876 0.016650000000000012 0.4578294873046876 0.026475000000000012 Q 0.4525794873046876 0.03630000000000001 0.4525794873046876 0.04740000000000002 Q 0.4525794873046876 0.05985000000000002 0.4578294873046876 0.07132500000000003 Q 0.4630794873046876 0.08280000000000003 0.4724544873046876 0.08992500000000002 Q 0.4818294873046876 0.09705000000000003 0.4938294873046876 0.09705000000000003 Q 0.5041794873046876 0.09705000000000003 0.5113044873046876 0.09232500000000002 Q 0.5184294873046876 0.08760000000000003 0.5236794873046876 0.07830000000000002 Q 0.5241294873046876 0.07740000000000002 0.5250294873046876 0.07687500000000003 Q 0.5259294873046876 0.07635000000000003 0.5266794873046876 0.07635000000000003 Q 0.5275794873046876 0.07635000000000003 0.5281794873046877 0.07695000000000002 Q 0.5287794873046876 0.07755000000000002 0.5287794873046876 0.07875000000000001 Q 0.5287794873046876 0.08055000000000002 0.5274294873046876 0.08527500000000002 Q 0.5260794873046876 0.09000000000000002 0.5247294873046876 0.09330000000000002 Q 0.5235294873046876 0.09540000000000003 0.5229294873046876 0.09600000000000003 Q 0.5223294873046876 0.09660000000000002 0.5199294873046876 0.09735000000000002 Q 0.5146794873046876 0.09945000000000002 0.5070294873046877 0.10057500000000003 Q 0.4993794873046876 0.10170000000000003 0.4915794873046876 0.10170000000000003 Q 0.4774794873046876 0.10170000000000003 0.4650294873046876 0.09532500000000002 M 0.5821437832031251 0.09765000000000003 Q 0.5753187832031251 0.09375000000000003 0.5713437832031252 0.08685000000000002 Q 0.5673687832031251 0.07995000000000002 0.5673687832031251 0.07140000000000002 Q 0.5673687832031251 0.06315000000000001 0.5717937832031251 0.05520000000000002 Q 0.5762187832031251 0.04725000000000002 0.5837937832031251 0.04230000000000002 Q 0.5913687832031251 0.03735000000000002 0.6002187832031252 0.03735000000000002 Q 0.6087687832031251 0.03735000000000002 0.6158187832031251 0.04147500000000002 Q 0.6228687832031251 0.04560000000000002 0.6269937832031252 0.05257500000000002 Q 0.6311187832031251 0.05955000000000002 0.6311187832031251 0.06750000000000002 Q 0.6311187832031251 0.07650000000000003 0.6272187832031252 0.08430000000000003 Q 0.6233187832031252 0.09210000000000003 0.6156687832031251 0.09682500000000002 Q 0.6080187832031252 0.10155000000000003 0.5972187832031252 0.10155000000000003 Q 0.5889687832031252 0.10155000000000003 0.5821437832031251 0.09765000000000003 M 0.6158187832031251 0.08880000000000002 Q 0.6188187832031251 0.08295000000000002 0.6188187832031251 0.07110000000000002 Q 0.6188187832031251 0.06390000000000001 0.6161187832031252 0.05715000000000002 Q 0.6134187832031252 0.05040000000000002 0.6086187832031251 0.04620000000000002 Q 0.6038187832031251 0.042000000000000016 0.5976687832031251 0.042000000000000016 Q 0.5933187832031251 0.042000000000000016 0.5901687832031252 0.04335000000000002 Q 0.5870187832031252 0.04470000000000002 0.5844687832031251 0.04800000000000002 Q 0.5817687832031251 0.051450000000000023 0.5807187832031251 0.05647500000000002 Q 0.5796687832031251 0.06150000000000002 0.5796687832031251 0.06795000000000002 Q 0.5796687832031251 0.07545000000000002 0.5823687832031251 0.08212500000000003 Q 0.5850687832031252 0.08880000000000002 0.5897937832031251 0.09292500000000002 Q 0.5945187832031251 0.09705000000000003 0.6003687832031251 0.09705000000000003 Q 0.6116187832031251 0.09705000000000003 0.6158187832031251 0.08880000000000002 M 0.6650540507812502 0.09825000000000002 Q 0.6650540507812502 0.09735000000000002 0.6658790507812502 0.09690000000000003 Q 0.6667040507812502 0.09645000000000002 0.6685040507812502 0.09585000000000002 Q 0.6718040507812502 0.09480000000000002 0.6733790507812502 0.09382500000000002 Q 0.6749540507812501 0.09285000000000003 0.6749540507812501 0.09015000000000002 L 0.6749540507812501 0.05790000000000002 Q 0.6749540507812501 0.05310000000000002 0.6738290507812502 0.05040000000000002 Q 0.6727040507812502 0.04770000000000002 0.6692540507812502 0.04710000000000002 Q 0.6679040507812501 0.04680000000000002 0.6679040507812501 0.045150000000000017 Q 0.6679040507812501 0.04365000000000002 0.6691040507812502 0.04335000000000002 Q 0.6731540507812502 0.04230000000000002 0.6755540507812502 0.04117500000000002 Q 0.6779540507812502 0.040050000000000016 0.6811040507812502 0.03780000000000002 L 0.6844040507812502 0.03555000000000001 Q 0.6845540507812502 0.03555000000000001 0.6849290507812502 0.03525000000000002 Q 0.6853040507812502 0.03495000000000002 0.6857540507812502 0.03495000000000002 Q 0.6860540507812501 0.03495000000000002 0.6863540507812502 0.03525000000000002 Q 0.6866540507812502 0.03555000000000001 0.6866540507812502 0.03600000000000002 L 0.6863540507812502 0.03915000000000002 Q 0.6862040507812502 0.04035000000000002 0.6860540507812501 0.04207500000000002 Q 0.6859040507812502 0.04380000000000002 0.6859040507812502 0.04560000000000002 Q 0.6859040507812502 0.04710000000000002 0.6862040507812502 0.04740000000000002 L 0.6865040507812502 0.04740000000000002 Q 0.6968540507812502 0.03735000000000002 0.7099040507812502 0.03735000000000002 Q 0.7154540507812502 0.03735000000000002 0.7190540507812502 0.03975000000000002 Q 0.7226540507812502 0.04215000000000002 0.7249040507812502 0.04770000000000002 L 0.7253540507812501 0.04770000000000002 Q 0.7370540507812502 0.03735000000000002 0.7498040507812502 0.03735000000000002 Q 0.7567040507812502 0.03735000000000002 0.7607540507812502 0.043575000000000016 Q 0.7648040507812502 0.04980000000000002 0.7648040507812502 0.05820000000000002 L 0.7648040507812502 0.09015000000000002 Q 0.7648040507812502 0.09285000000000003 0.7663790507812502 0.09382500000000002 Q 0.7679540507812502 0.09480000000000002 0.7712540507812502 0.09585000000000002 Q 0.7730540507812502 0.09645000000000002 0.7738790507812502 0.09690000000000003 Q 0.7747040507812502 0.09735000000000002 0.7747040507812502 0.09825000000000002 Q 0.7747040507812502 0.09915000000000003 0.7740290507812502 0.09952500000000003 Q 0.7733540507812502 0.09990000000000003 0.7717040507812503 0.09990000000000003 Q 0.7676540507812502 0.09990000000000003 0.7654040507812502 0.09945000000000002 Q 0.7624040507812502 0.09915000000000003 0.7598540507812502 0.09915000000000003 Q 0.7571540507812502 0.09915000000000003 0.7541540507812502 0.09945000000000002 Q 0.7514540507812502 0.09990000000000003 0.7474040507812502 0.09990000000000003 Q 0.7444040507812502 0.09990000000000003 0.7444040507812502 0.09825000000000002 Q 0.7444040507812502 0.09720000000000002 0.7452290507812502 0.09675000000000003 Q 0.7460540507812502 0.09630000000000002 0.7478540507812502 0.09585000000000002 Q 0.7510040507812502 0.09510000000000002 0.7526540507812503 0.09397500000000003 Q 0.7543040507812502 0.09285000000000003 0.7543040507812502 0.09015000000000002 L 0.7543040507812502 0.05865000000000002 Q 0.7543040507812502 0.05310000000000002 0.7507040507812502 0.04875000000000002 Q 0.7471040507812502 0.04440000000000002 0.7423040507812502 0.04440000000000002 Q 0.7343540507812502 0.04440000000000002 0.7292540507812502 0.04845000000000002 Q 0.7250540507812502 0.05175000000000002 0.7250540507812502 0.05925000000000002 L 0.7250540507812502 0.09015000000000002 Q 0.7250540507812502 0.09285000000000003 0.7268540507812502 0.09397500000000003 Q 0.7286540507812502 0.09510000000000002 0.7318040507812502 0.09585000000000002 Q 0.7352540507812502 0.09660000000000002 0.7352540507812502 0.09825000000000002 Q 0.7352540507812502 0.09990000000000003 0.7322540507812502 0.09990000000000003 Q 0.7282040507812502 0.09990000000000003 0.7256540507812502 0.09945000000000002 Q 0.7223540507812501 0.09915000000000003 0.7199540507812502 0.09915000000000003 Q 0.7172540507812502 0.09915000000000003 0.7142540507812501 0.09945000000000002 Q 0.7115540507812502 0.09990000000000003 0.7075040507812502 0.09990000000000003 Q 0.7045040507812502 0.09990000000000003 0.7045040507812502 0.09825000000000002 Q 0.7045040507812502 0.09735000000000002 0.7051790507812502 0.09697500000000002 Q 0.7058540507812502 0.09660000000000002 0.7066790507812502 0.09630000000000002 Q 0.7075040507812502 0.09600000000000003 0.7079540507812502 0.09585000000000002 Q 0.7114040507812502 0.09480000000000002 0.7129790507812502 0.09382500000000002 Q 0.7145540507812502 0.09285000000000003 0.7145540507812502 0.09015000000000002 L 0.7145540507812502 0.05865000000000002 Q 0.7145540507812502 0.05310000000000002 0.7109540507812502 0.04875000000000002 Q 0.7073540507812502 0.04440000000000002 0.7025540507812502 0.04440000000000002 Q 0.6946040507812502 0.04440000000000002 0.6895040507812502 0.04845000000000002 Q 0.6854540507812502 0.051450000000000023 0.6854540507812502 0.05925000000000002 L 0.6854540507812502 0.09015000000000002 Q 0.6854540507812502 0.09285000000000003 0.6870290507812502 0.09382500000000002 Q 0.6886040507812502 0.09480000000000002 0.6919040507812502 0.09585000000000002 Q 0.6923540507812502 0.09600000000000003 0.6933290507812502 0.09630000000000002 Q 0.6943040507812502 0.09660000000000002 0.6948290507812502 0.09705000000000003 Q 0.6953540507812502 0.09750000000000003 0.6953540507812502 0.09825000000000002 Q 0.6953540507812502 0.09990000000000003 0.6923540507812502 0.09990000000000003 Q 0.6884540507812502 0.09990000000000003 0.6859040507812502 0.09945000000000002 Q 0.6826040507812502 0.09915000000000003 0.6802040507812502 0.09915000000000003 Q 0.6778040507812502 0.09915000000000003 0.6745040507812502 0.09945000000000002 Q 0.6721040507812502 0.09990000000000003 0.6680540507812502 0.09990000000000003 Q 0.6650540507812502 0.09990000000000003 0.6650540507812502 0.09825000000000002 M 0.8060923212890627 0.14085000000000003 Q 0.8060923212890627 0.13980000000000004 0.8069173212890627 0.13927500000000004 Q 0.8077423212890626 0.13875000000000004 0.8095423212890627 0.13815000000000002 Q 0.8128423212890628 0.13710000000000003 0.8144173212890627 0.13612500000000002 Q 0.8159923212890627 0.13515000000000002 0.8159923212890627 0.13245 L 0.8159923212890627 0.05640000000000002 Q 0.8159923212890627 0.05385000000000002 0.8141923212890627 0.05002500000000002 Q 0.8123923212890627 0.04620000000000002 0.8090923212890627 0.04545000000000002 Q 0.8084923212890627 0.04530000000000002 0.8081923212890627 0.044775000000000016 Q 0.8078923212890627 0.04425000000000002 0.8078923212890627 0.04350000000000002 Q 0.8078923212890627 0.042000000000000016 0.8089423212890627 0.04170000000000002 Q 0.8155423212890627 0.04020000000000002 0.8204923212890627 0.03817500000000002 Q 0.8254423212890627 0.036150000000000015 0.8263423212890627 0.03570000000000002 L 0.8266423212890627 0.03555000000000001 Q 0.8269423212890628 0.03555000000000001 0.8272423212890627 0.03600000000000002 Q 0.8275423212890627 0.036450000000000024 0.8275423212890627 0.036900000000000016 L 0.8272423212890627 0.04080000000000002 Q 0.8267923212890627 0.04350000000000002 0.8267923212890627 0.04590000000000002 Q 0.8267923212890627 0.04710000000000002 0.8269423212890628 0.04725000000000002 Q 0.8285923212890627 0.04560000000000002 0.8327173212890627 0.04327500000000002 Q 0.8368423212890627 0.04095000000000002 0.8418673212890627 0.03915000000000002 Q 0.8468923212890627 0.03735000000000002 0.8512423212890627 0.03735000000000002 Q 0.8585923212890627 0.03735000000000002 0.8642173212890627 0.04140000000000002 Q 0.8698423212890627 0.04545000000000002 0.8728423212890627 0.05197500000000002 Q 0.8758423212890627 0.05850000000000002 0.8758423212890627 0.06570000000000002 Q 0.8758423212890627 0.07455000000000002 0.8713423212890627 0.08287500000000002 Q 0.8668423212890627 0.09120000000000003 0.8590423212890627 0.09637500000000003 Q 0.8512423212890627 0.10155000000000003 0.8420923212890628 0.10155000000000003 Q 0.8387923212890627 0.10155000000000003 0.8339923212890628 0.10012500000000002 Q 0.8291923212890627 0.09870000000000002 0.8270923212890627 0.09675000000000003 Q 0.8267923212890627 0.09675000000000003 0.8266423212890627 0.09975000000000002 Q 0.8264923212890627 0.10275000000000002 0.8264923212890627 0.10440000000000002 L 0.8264923212890627 0.13245 Q 0.8264923212890627 0.13470000000000004 0.8284423212890627 0.13582500000000003 Q 0.8303923212890627 0.13695000000000002 0.8324173212890627 0.137475 Q 0.8344423212890627 0.138 0.8351923212890627 0.13815000000000002 Q 0.8369923212890626 0.13875000000000004 0.8378173212890627 0.13927500000000004 Q 0.8386423212890627 0.13980000000000004 0.8386423212890627 0.14085000000000003 Q 0.8386423212890627 0.14220000000000002 0.8353423212890627 0.14220000000000002 Q 0.8312923212890627 0.14220000000000002 0.8278423212890627 0.14175000000000004 Q 0.8239423212890628 0.14145000000000002 0.8212423212890627 0.14145000000000002 Q 0.8188423212890626 0.14145000000000002 0.8155423212890627 0.14175000000000004 Q 0.8131423212890627 0.14220000000000002 0.8092423212890627 0.14220000000000002 Q 0.8060923212890627 0.14220000000000002 0.8060923212890627 0.14085000000000003 M 0.8525173212890627 0.09427500000000003 Q 0.8570923212890627 0.09165000000000002 0.8604673212890627 0.08565000000000002 Q 0.8638423212890627 0.07965000000000003 0.8638423212890627 0.07050000000000002 Q 0.8638423212890627 0.05535000000000002 0.8573173212890627 0.04972500000000002 Q 0.8507923212890627 0.04410000000000002 0.8434423212890627 0.04410000000000002 Q 0.8401423212890627 0.04410000000000002 0.8362423212890627 0.04552500000000002 Q 0.8323423212890627 0.04695000000000002 0.8296423212890627 0.04890000000000002 Q 0.8269423212890628 0.05085000000000002 0.8269423212890628 0.05190000000000002 Q 0.8269423212890628 0.05865000000000002 0.8266423212890627 0.06765000000000002 Q 0.8264923212890627 0.07065000000000002 0.8264923212890627 0.07455000000000002 Q 0.8264923212890627 0.08040000000000003 0.8291923212890627 0.08557500000000003 Q 0.8318923212890627 0.09075000000000003 0.8360923212890627 0.09382500000000002 Q 0.8402923212890627 0.09690000000000003 0.8443423212890627 0.09690000000000003 Q 0.8479423212890627 0.09690000000000003 0.8525173212890627 0.09427500000000003 M 0.9153226816406252 0.09952500000000003 Q 0.9124726816406252 0.09750000000000003 0.9105976816406253 0.09442500000000002 Q 0.9087226816406253 0.09135000000000003 0.9087226816406253 0.08865000000000002 Q 0.9087226816406253 0.08400000000000002 0.9111976816406252 0.08130000000000003 Q 0.9136726816406252 0.07860000000000003 0.9193726816406252 0.07620000000000002 L 0.9346726816406252 0.06990000000000002 Q 0.9375226816406252 0.06870000000000002 0.9381226816406253 0.06780000000000003 Q 0.9387226816406252 0.06690000000000002 0.9388726816406252 0.06390000000000001 L 0.9391726816406253 0.05430000000000002 Q 0.9393226816406253 0.05025000000000002 0.9369226816406253 0.04747500000000002 Q 0.9345226816406252 0.04470000000000002 0.9303226816406253 0.04470000000000002 Q 0.9280726816406253 0.04470000000000002 0.9258226816406252 0.04545000000000002 Q 0.9235726816406252 0.04620000000000002 0.9220726816406253 0.04740000000000002 Q 0.9205726816406252 0.04845000000000002 0.9205726816406252 0.05175000000000002 L 0.9207226816406252 0.05445000000000002 Q 0.9207226816406252 0.05565000000000002 0.9168976816406252 0.05767500000000002 Q 0.9130726816406253 0.059700000000000024 0.9108226816406253 0.059700000000000024 Q 0.9100726816406253 0.059700000000000024 0.9096226816406252 0.059325000000000024 Q 0.9091726816406253 0.05895000000000002 0.9091726816406253 0.05835000000000002 Q 0.9091726816406253 0.05595000000000002 0.9107476816406253 0.05317500000000002 Q 0.9123226816406252 0.05040000000000002 0.9151726816406253 0.04800000000000002 Q 0.9202726816406253 0.04335000000000002 0.9266476816406253 0.04035000000000002 Q 0.9330226816406253 0.03735000000000002 0.9375226816406252 0.03735000000000002 Q 0.9429226816406252 0.03735000000000002 0.9464476816406252 0.04117500000000002 Q 0.9499726816406252 0.04500000000000002 0.9498226816406252 0.05070000000000002 L 0.9490726816406253 0.08670000000000003 Q 0.9489226816406252 0.08985000000000003 0.9504226816406253 0.09180000000000002 Q 0.9519226816406252 0.09375000000000003 0.9544726816406253 0.09375000000000003 Q 0.9582226816406253 0.09375000000000003 0.9600226816406252 0.09210000000000003 Q 0.9607726816406252 0.09135000000000003 0.9612226816406253 0.09135000000000003 Q 0.9619726816406252 0.09135000000000003 0.9624226816406253 0.09180000000000002 Q 0.9628726816406252 0.09225000000000003 0.9628726816406252 0.09300000000000003 Q 0.9628726816406252 0.09360000000000003 0.9624226816406253 0.09457500000000002 Q 0.9619726816406252 0.09555000000000002 0.9612226816406253 0.09630000000000002 Q 0.9588226816406252 0.09870000000000002 0.9560476816406253 0.10012500000000002 Q 0.9532726816406253 0.10155000000000003 0.9508726816406252 0.10155000000000003 Q 0.9439726816406253 0.10155000000000003 0.9399226816406252 0.09375000000000003 L 0.9394726816406253 0.09375000000000003 Q 0.9345226816406252 0.09780000000000003 0.9300226816406253 0.09967500000000003 Q 0.9255226816406252 0.10155000000000003 0.9207226816406252 0.10155000000000003 Q 0.9181726816406253 0.10155000000000003 0.9153226816406252 0.09952500000000003 M 0.9366226816406252 0.09075000000000003 Q 0.9375226816406252 0.08985000000000003 0.9379726816406253 0.08850000000000002 Q 0.9384226816406253 0.08715000000000002 0.9385726816406252 0.08460000000000002 L 0.9388726816406252 0.07725000000000003 L 0.9388726816406252 0.07635000000000003 Q 0.9388726816406252 0.07515000000000002 0.9385726816406252 0.07462500000000002 Q 0.9382726816406253 0.07410000000000003 0.9375226816406252 0.07410000000000003 Q 0.9366226816406252 0.07410000000000003 0.9345226816406252 0.07485000000000003 Q 0.9270226816406253 0.07755000000000002 0.9237226816406252 0.08055000000000002 Q 0.9204226816406252 0.08355000000000003 0.9204226816406252 0.08640000000000002 Q 0.9204226816406252 0.09015000000000002 0.9225976816406253 0.09225000000000003 Q 0.9247726816406252 0.09435000000000002 0.9277726816406252 0.09435000000000002 Q 0.9330226816406253 0.09435000000000002 0.9366226816406252 0.09075000000000003 M 0.9917067041015628 0.09825000000000002 Q 0.9917067041015628 0.09720000000000002 0.9924567041015627 0.09682500000000002 Q 0.9932067041015628 0.09645000000000002 0.9951567041015628 0.09585000000000002 Q 0.9983067041015627 0.09510000000000002 0.9999567041015628 0.09397500000000003 Q 1.0016067041015628 0.09285000000000003 1.0016067041015628 0.09015000000000002 L 1.0016067041015628 0.05790000000000002 Q 1.0016067041015628 0.05310000000000002 1.0005567041015628 0.05055000000000002 Q 0.9995067041015627 0.04800000000000002 0.9960567041015628 0.04710000000000002 Q 0.9945567041015627 0.04665000000000002 0.9945567041015627 0.045150000000000017 Q 0.9945567041015627 0.04350000000000002 0.9959067041015628 0.04335000000000002 Q 1.0005567041015628 0.04215000000000002 1.0037817041015629 0.04035000000000002 Q 1.0070067041015627 0.03855000000000002 1.0109067041015627 0.03570000000000002 Q 1.0119567041015627 0.03495000000000002 1.0125567041015628 0.03495000000000002 Q 1.0133067041015629 0.03495000000000002 1.0133067041015629 0.03600000000000002 L 1.0130067041015627 0.03915000000000002 Q 1.0128567041015628 0.04035000000000002 1.0127067041015627 0.04207500000000002 Q 1.0125567041015628 0.04380000000000002 1.0125567041015628 0.04560000000000002 Q 1.0125567041015628 0.04710000000000002 1.0128567041015628 0.04740000000000002 Q 1.0182567041015627 0.04230000000000002 1.0241067041015628 0.03982500000000002 Q 1.0299567041015627 0.03735000000000002 1.0370067041015627 0.03735000000000002 Q 1.0442067041015628 0.03735000000000002 1.0490817041015628 0.04335000000000002 Q 1.0539567041015627 0.04935000000000002 1.0539567041015627 0.05820000000000002 L 1.0539567041015627 0.09015000000000002 Q 1.0539567041015627 0.09285000000000003 1.0555317041015628 0.09382500000000002 Q 1.0571067041015627 0.09480000000000002 1.0604067041015628 0.09585000000000002 Q 1.0622067041015628 0.09645000000000002 1.0630317041015627 0.09697500000000002 Q 1.0638567041015627 0.09750000000000003 1.0638567041015627 0.09855000000000003 Q 1.0638567041015627 0.09990000000000003 1.0608567041015629 0.09990000000000003 Q 1.0568067041015627 0.09990000000000003 1.0544067041015628 0.09945000000000002 Q 1.0514067041015627 0.09915000000000003 1.0488567041015628 0.09915000000000003 Q 1.0464567041015627 0.09915000000000003 1.0431567041015628 0.09945000000000002 Q 1.0407567041015628 0.09990000000000003 1.0365567041015629 0.09990000000000003 Q 1.0335567041015628 0.09990000000000003 1.0335567041015628 0.09855000000000003 Q 1.0335567041015628 0.09750000000000003 1.0343817041015628 0.09697500000000002 Q 1.0352067041015627 0.09645000000000002 1.0370067041015627 0.09585000000000002 Q 1.0403067041015628 0.09480000000000002 1.0418817041015627 0.09382500000000002 Q 1.0434567041015628 0.09285000000000003 1.0434567041015628 0.09015000000000002 L 1.0434567041015628 0.05865000000000002 Q 1.0434567041015628 0.05220000000000002 1.0397817041015627 0.04845000000000002 Q 1.0361067041015628 0.04470000000000002 1.0299567041015627 0.04455000000000002 Q 1.0206567041015628 0.04455000000000002 1.0133067041015629 0.05055000000000002 Q 1.0121067041015628 0.05175000000000002 1.0121067041015628 0.05400000000000002 L 1.0121067041015628 0.09015000000000002 Q 1.0121067041015628 0.09285000000000003 1.0137567041015627 0.09397500000000003 Q 1.0154067041015629 0.09510000000000002 1.0185567041015628 0.09585000000000002 Q 1.0203567041015629 0.09630000000000002 1.0211817041015627 0.09682500000000002 Q 1.0220067041015628 0.09735000000000002 1.0220067041015628 0.09825000000000002 Q 1.0220067041015628 0.09990000000000003 1.0190067041015627 0.09990000000000003 Q 1.0151067041015627 0.09990000000000003 1.0125567041015628 0.09945000000000002 Q 1.0092567041015628 0.09915000000000003 1.0068567041015628 0.09915000000000003 Q 1.0044567041015628 0.09915000000000003 1.0011567041015628 0.09945000000000002 Q 0.9987567041015628 0.09990000000000003 0.9947067041015628 0.09990000000000003 Q 0.9917067041015628 0.09990000000000003 0.9917067041015628 0.09825000000000002 M 1.0905232705078127 0.14070000000000002 Q 1.0883482705078127 0.13920000000000002 1.0883482705078127 0.13605000000000003 Q 1.0883482705078127 0.13320000000000004 1.0896982705078129 0.13125000000000003 Q 1.0910482705078128 0.12930000000000003 1.0932982705078127 0.12930000000000003 Q 1.0944982705078128 0.12930000000000003 1.0965232705078127 0.12975000000000003 Q 1.098548270507813 0.13020000000000004 1.0992982705078127 0.13020000000000004 Q 1.1010982705078127 0.13020000000000004 1.1021482705078127 0.12855000000000003 Q 1.1049982705078127 0.12420000000000003 1.1084482705078127 0.11707500000000003 Q 1.1118982705078129 0.10995000000000002 1.1148982705078128 0.10185000000000002 Q 1.1153482705078128 0.10050000000000002 1.1153482705078128 0.09840000000000003 Q 1.1153482705078128 0.09570000000000002 1.1147482705078129 0.09405000000000002 L 1.0973482705078128 0.05010000000000002 Q 1.0947982705078128 0.04395000000000002 1.0905982705078128 0.04275000000000002 Q 1.0887982705078127 0.04215000000000002 1.087973270507813 0.041625000000000016 Q 1.0871482705078128 0.04110000000000002 1.0871482705078128 0.040050000000000016 Q 1.0871482705078128 0.03870000000000002 1.0901482705078127 0.03870000000000002 Q 1.0940482705078127 0.03870000000000002 1.0959982705078128 0.03915000000000002 Q 1.0986982705078128 0.03945000000000002 1.1010982705078127 0.03945000000000002 Q 1.1036482705078128 0.03945000000000002 1.1063482705078127 0.03915000000000002 Q 1.1085982705078128 0.03870000000000002 1.1124982705078128 0.03870000000000002 Q 1.1135482705078128 0.03870000000000002 1.1145232705078127 0.03915000000000002 Q 1.1154982705078127 0.03960000000000002 1.1154982705078127 0.04035000000000002 Q 1.1154982705078127 0.04140000000000002 1.1140732705078127 0.04230000000000002 Q 1.112648270507813 0.043200000000000016 1.1111482705078128 0.04365000000000002 Q 1.1094982705078127 0.04410000000000002 1.1088232705078127 0.04522500000000002 Q 1.1081482705078127 0.046350000000000016 1.1081482705078127 0.04845000000000002 Q 1.1081482705078127 0.04980000000000002 1.1093482705078128 0.05265000000000002 L 1.1214982705078127 0.08265000000000003 Q 1.121798270507813 0.08355000000000003 1.1223982705078128 0.08355000000000003 Q 1.1228482705078129 0.08355000000000003 1.1231482705078129 0.08265000000000003 L 1.1334982705078127 0.05520000000000002 Q 1.1339482705078128 0.05415000000000002 1.1343232705078128 0.05242500000000002 Q 1.1346982705078128 0.05070000000000002 1.1346982705078128 0.04965000000000002 Q 1.1346982705078128 0.04710000000000002 1.1339482705078128 0.04582500000000002 Q 1.1331982705078127 0.04455000000000002 1.1316982705078127 0.04395000000000002 Q 1.1273482705078128 0.042000000000000016 1.1273482705078128 0.04035000000000002 Q 1.1273482705078128 0.03960000000000002 1.1283232705078128 0.03915000000000002 Q 1.1292982705078127 0.03870000000000002 1.1303482705078127 0.03870000000000002 Q 1.1310982705078128 0.03870000000000002 1.133798270507813 0.03900000000000002 Q 1.1391982705078127 0.03945000000000002 1.1409982705078128 0.03945000000000002 Q 1.1430982705078128 0.03945000000000002 1.1466982705078128 0.03900000000000002 Q 1.1484982705078128 0.03870000000000002 1.1498482705078128 0.03870000000000002 Q 1.1528482705078127 0.03870000000000002 1.1528482705078127 0.040050000000000016 Q 1.1528482705078127 0.04110000000000002 1.1520232705078128 0.041625000000000016 Q 1.1511982705078128 0.04215000000000002 1.1493982705078127 0.04275000000000002 Q 1.1471482705078129 0.04350000000000002 1.1445982705078128 0.046350000000000016 Q 1.1420482705078128 0.04920000000000002 1.1405482705078127 0.05280000000000002 L 1.1201482705078127 0.10140000000000002 L 1.1178982705078129 0.10695000000000003 Q 1.1085982705078128 0.12945000000000004 1.1057482705078128 0.13605000000000003 Q 1.1043982705078128 0.13905000000000003 1.1018482705078128 0.14062500000000003 Q 1.0992982705078127 0.14220000000000002 1.0959982705078128 0.14220000000000002 Q 1.0926982705078128 0.14220000000000002 1.0905232705078127 0.14070000000000002 M 1.3266953437500002 0.09945000000000002 Q 1.3227203437500001 0.09690000000000003 1.3195703437500002 0.09255000000000002 Q 1.3183703437500003 0.09075000000000003 1.3020953437500002 0.07155000000000003 Q 1.2858203437500002 0.05235000000000002 1.2784703437500002 0.04350000000000002 Q 1.2664703437500002 0.029400000000000023 1.2643703437500002 0.026850000000000013 Q 1.2624203437500001 0.024450000000000013 1.2612203437500003 0.024450000000000013 Q 1.2604703437500002 0.024450000000000013 1.2601703437500003 0.025425000000000017 Q 1.2598703437500003 0.02640000000000002 1.2598703437500003 0.027600000000000013 Q 1.2591203437500003 0.06465000000000001 1.2591203437500003 0.08385000000000002 Q 1.2591203437500003 0.09405000000000002 1.2687203437500003 0.09585000000000002 Q 1.2712703437500001 0.09630000000000002 1.2724703437500002 0.09690000000000003 Q 1.2736703437500003 0.09750000000000003 1.2736703437500003 0.09855000000000003 Q 1.2736703437500003 0.10020000000000003 1.2693203437500002 0.10020000000000003 Q 1.2637703437500003 0.10020000000000003 1.2607703437500002 0.09975000000000002 Q 1.2577703437500003 0.09945000000000002 1.2552203437500002 0.09945000000000002 Q 1.2529703437500002 0.09945000000000002 1.2499703437500003 0.09975000000000002 Q 1.2441203437500001 0.10020000000000003 1.2415703437500003 0.10020000000000003 Q 1.2372203437500002 0.10020000000000003 1.2372203437500002 0.09855000000000003 Q 1.2372203437500002 0.09765000000000003 1.2383453437500003 0.09705000000000003 Q 1.2394703437500003 0.09645000000000002 1.2421703437500002 0.09570000000000002 Q 1.2498203437500002 0.09360000000000003 1.2508703437500002 0.08340000000000003 Q 1.2519203437500002 0.07365000000000002 1.2527453437500002 0.05707500000000002 Q 1.2535703437500003 0.04050000000000002 1.2535703437500003 0.023400000000000018 Q 1.2535703437500003 0.016050000000000023 1.2498953437500002 0.012450000000000017 Q 1.2462203437500001 0.00885000000000001 1.2387203437500003 0.006450000000000011 Q 1.2373703437500003 0.006000000000000019 1.2357203437500002 0.0050250000000000156 Q 1.2340703437500002 0.004050000000000012 1.2340703437500002 0.002850000000000019 Q 1.2340703437500002 0.0016500000000000126 1.2351953437500003 0.0012000000000000205 Q 1.2363203437500003 0.0007500000000000145 1.2375203437500002 0.0007500000000000145 L 1.2480203437500001 0.0012000000000000205 Q 1.2552203437500002 0.0015000000000000152 1.2606203437500003 0.0015000000000000152 Q 1.2618203437500002 0.0015000000000000152 1.2624953437500002 0.002025000000000013 Q 1.2631703437500001 0.0025500000000000106 1.2642203437500001 0.004050000000000012 Q 1.2660203437500002 0.0066000000000000225 1.2895703437500001 0.03525000000000002 Q 1.3131203437500003 0.06390000000000001 1.3231703437500002 0.07605000000000002 Q 1.3257203437500003 0.07905000000000002 1.3269203437500003 0.07905000000000002 Q 1.3282703437500003 0.07905000000000002 1.3284203437500002 0.07590000000000002 Q 1.3287203437500001 0.06450000000000003 1.3287203437500001 0.014850000000000016 Q 1.3285703437500003 0.012150000000000022 1.3256453437500002 0.009600000000000011 Q 1.3227203437500001 0.007050000000000015 1.3200203437500002 0.0066000000000000225 Q 1.3132703437500002 0.005400000000000016 1.3132703437500002 0.00360000000000002 Q 1.3132703437500002 0.002850000000000019 1.3152203437500003 0.0024000000000000132 Q 1.3171703437500002 0.0019500000000000212 1.3194203437500003 0.0019500000000000212 L 1.3279703437500001 0.0019500000000000212 L 1.3354703437500002 0.00180000000000001 Q 1.3402703437500003 0.0015000000000000152 1.3452203437500003 0.0015000000000000152 Q 1.3495703437500002 0.0015000000000000152 1.3495703437500002 0.003150000000000014 Q 1.3495703437500002 0.0052500000000000185 1.3446203437500002 0.0061500000000000166 Q 1.3390703437500002 0.007200000000000012 1.3372703437500002 0.00885000000000001 Q 1.3354703437500002 0.01050000000000001 1.3351703437500002 0.014250000000000013 Q 1.3348703437500002 0.019650000000000015 1.3348703437500002 0.08370000000000002 Q 1.3348703437500002 0.08970000000000003 1.3354703437500002 0.09510000000000002 L 1.3356203437500003 0.09825000000000002 Q 1.3356203437500003 0.10200000000000002 1.3324703437500003 0.10200000000000002 Q 1.3306703437500003 0.10200000000000002 1.3266953437500002 0.09945000000000002 M 1.3883051718750004 0.09952500000000003 Q 1.3854551718750003 0.09750000000000003 1.3835801718750003 0.09442500000000002 Q 1.3817051718750002 0.09135000000000003 1.3817051718750002 0.08865000000000002 Q 1.3817051718750002 0.08400000000000002 1.3841801718750002 0.08130000000000003 Q 1.3866551718750002 0.07860000000000003 1.3923551718750002 0.07620000000000002 L 1.4076551718750003 0.06990000000000002 Q 1.4105051718750004 0.06870000000000002 1.4111051718750003 0.06780000000000003 Q 1.4117051718750002 0.06690000000000002 1.4118551718750003 0.06390000000000001 L 1.4121551718750003 0.05430000000000002 Q 1.4123051718750002 0.05025000000000002 1.4099051718750002 0.04747500000000002 Q 1.4075051718750002 0.04470000000000002 1.4033051718750003 0.04470000000000002 Q 1.4010551718750002 0.04470000000000002 1.3988051718750003 0.04545000000000002 Q 1.3965551718750002 0.04620000000000002 1.3950551718750002 0.04740000000000002 Q 1.3935551718750003 0.04845000000000002 1.3935551718750003 0.05175000000000002 L 1.3937051718750002 0.05445000000000002 Q 1.3937051718750002 0.05565000000000002 1.3898801718750002 0.05767500000000002 Q 1.3860551718750003 0.059700000000000024 1.3838051718750002 0.059700000000000024 Q 1.3830551718750002 0.059700000000000024 1.3826051718750003 0.059325000000000024 Q 1.3821551718750003 0.05895000000000002 1.3821551718750003 0.05835000000000002 Q 1.3821551718750003 0.05595000000000002 1.3837301718750004 0.05317500000000002 Q 1.3853051718750002 0.05040000000000002 1.3881551718750003 0.04800000000000002 Q 1.3932551718750001 0.04335000000000002 1.3996301718750002 0.04035000000000002 Q 1.4060051718750002 0.03735000000000002 1.4105051718750004 0.03735000000000002 Q 1.4159051718750002 0.03735000000000002 1.4194301718750002 0.04117500000000002 Q 1.4229551718750002 0.04500000000000002 1.4228051718750003 0.05070000000000002 L 1.4220551718750003 0.08670000000000003 Q 1.4219051718750002 0.08985000000000003 1.4234051718750003 0.09180000000000002 Q 1.4249051718750003 0.09375000000000003 1.4274551718750002 0.09375000000000003 Q 1.4312051718750003 0.09375000000000003 1.4330051718750003 0.09210000000000003 Q 1.4337551718750003 0.09135000000000003 1.4342051718750002 0.09135000000000003 Q 1.4349551718750002 0.09135000000000003 1.4354051718750003 0.09180000000000002 Q 1.4358551718750003 0.09225000000000003 1.4358551718750003 0.09300000000000003 Q 1.4358551718750003 0.09360000000000003 1.4354051718750003 0.09457500000000002 Q 1.4349551718750002 0.09555000000000002 1.4342051718750002 0.09630000000000002 Q 1.4318051718750002 0.09870000000000002 1.4290301718750003 0.10012500000000002 Q 1.4262551718750003 0.10155000000000003 1.4238551718750003 0.10155000000000003 Q 1.4169551718750002 0.10155000000000003 1.4129051718750003 0.09375000000000003 L 1.4124551718750002 0.09375000000000003 Q 1.4075051718750002 0.09780000000000003 1.4030051718750003 0.09967500000000003 Q 1.3985051718750003 0.10155000000000003 1.3937051718750002 0.10155000000000003 Q 1.3911551718750002 0.10155000000000003 1.3883051718750004 0.09952500000000003 M 1.4096051718750002 0.09075000000000003 Q 1.4105051718750004 0.08985000000000003 1.4109551718750002 0.08850000000000002 Q 1.4114051718750003 0.08715000000000002 1.4115551718750003 0.08460000000000002 L 1.4118551718750003 0.07725000000000003 L 1.4118551718750003 0.07635000000000003 Q 1.4118551718750003 0.07515000000000002 1.4115551718750003 0.07462500000000002 Q 1.4112551718750002 0.07410000000000003 1.4105051718750004 0.07410000000000003 Q 1.4096051718750002 0.07410000000000003 1.4075051718750002 0.07485000000000003 Q 1.4000051718750002 0.07755000000000002 1.3967051718750003 0.08055000000000002 Q 1.3934051718750002 0.08355000000000003 1.3934051718750002 0.08640000000000002 Q 1.3934051718750002 0.09015000000000002 1.3955801718750003 0.09225000000000003 Q 1.3977551718750003 0.09435000000000002 1.4007551718750002 0.09435000000000002 Q 1.4060051718750002 0.09435000000000002 1.4096051718750002 0.09075000000000003 M 1.464689194335938 0.09825000000000002 Q 1.464689194335938 0.09735000000000002 1.4655141943359378 0.09690000000000003 Q 1.4663391943359378 0.09645000000000002 1.4681391943359379 0.09585000000000002 Q 1.471439194335938 0.09480000000000002 1.4730141943359378 0.09382500000000002 Q 1.474589194335938 0.09285000000000003 1.474589194335938 0.09015000000000002 L 1.474589194335938 0.05790000000000002 Q 1.474589194335938 0.05310000000000002 1.473464194335938 0.05040000000000002 Q 1.4723391943359379 0.04770000000000002 1.468889194335938 0.04710000000000002 Q 1.467539194335938 0.04680000000000002 1.467539194335938 0.045150000000000017 Q 1.467539194335938 0.04365000000000002 1.4687391943359378 0.04335000000000002 Q 1.472789194335938 0.04230000000000002 1.4751891943359379 0.04117500000000002 Q 1.4775891943359378 0.040050000000000016 1.4807391943359378 0.03780000000000002 L 1.484039194335938 0.03555000000000001 Q 1.4841891943359378 0.03555000000000001 1.4845641943359378 0.03525000000000002 Q 1.4849391943359378 0.03495000000000002 1.4853891943359379 0.03495000000000002 Q 1.4856891943359378 0.03495000000000002 1.4859891943359378 0.03525000000000002 Q 1.486289194335938 0.03555000000000001 1.486289194335938 0.03600000000000002 L 1.4859891943359378 0.03915000000000002 Q 1.485839194335938 0.04035000000000002 1.4856891943359378 0.04207500000000002 Q 1.485539194335938 0.04380000000000002 1.485539194335938 0.04560000000000002 Q 1.485539194335938 0.04710000000000002 1.485839194335938 0.04740000000000002 L 1.4861391943359379 0.04740000000000002 Q 1.496489194335938 0.03735000000000002 1.509539194335938 0.03735000000000002 Q 1.515089194335938 0.03735000000000002 1.518689194335938 0.03975000000000002 Q 1.5222891943359378 0.04215000000000002 1.5245391943359379 0.04770000000000002 L 1.524989194335938 0.04770000000000002 Q 1.536689194335938 0.03735000000000002 1.5494391943359378 0.03735000000000002 Q 1.556339194335938 0.03735000000000002 1.5603891943359378 0.043575000000000016 Q 1.564439194335938 0.04980000000000002 1.564439194335938 0.05820000000000002 L 1.564439194335938 0.09015000000000002 Q 1.564439194335938 0.09285000000000003 1.5660141943359378 0.09382500000000002 Q 1.567589194335938 0.09480000000000002 1.5708891943359378 0.09585000000000002 Q 1.5726891943359378 0.09645000000000002 1.5735141943359379 0.09690000000000003 Q 1.574339194335938 0.09735000000000002 1.574339194335938 0.09825000000000002 Q 1.574339194335938 0.09915000000000003 1.573664194335938 0.09952500000000003 Q 1.572989194335938 0.09990000000000003 1.5713391943359378 0.09990000000000003 Q 1.567289194335938 0.09990000000000003 1.5650391943359379 0.09945000000000002 Q 1.562039194335938 0.09915000000000003 1.559489194335938 0.09915000000000003 Q 1.5567891943359378 0.09915000000000003 1.5537891943359379 0.09945000000000002 Q 1.551089194335938 0.09990000000000003 1.5470391943359378 0.09990000000000003 Q 1.544039194335938 0.09990000000000003 1.544039194335938 0.09825000000000002 Q 1.544039194335938 0.09720000000000002 1.5448641943359378 0.09675000000000003 Q 1.5456891943359379 0.09630000000000002 1.547489194335938 0.09585000000000002 Q 1.5506391943359379 0.09510000000000002 1.5522891943359378 0.09397500000000003 Q 1.553939194335938 0.09285000000000003 1.553939194335938 0.09015000000000002 L 1.553939194335938 0.05865000000000002 Q 1.553939194335938 0.05310000000000002 1.550339194335938 0.04875000000000002 Q 1.5467391943359379 0.04440000000000002 1.541939194335938 0.04440000000000002 Q 1.5339891943359378 0.04440000000000002 1.528889194335938 0.04845000000000002 Q 1.524689194335938 0.05175000000000002 1.524689194335938 0.05925000000000002 L 1.524689194335938 0.09015000000000002 Q 1.524689194335938 0.09285000000000003 1.5264891943359378 0.09397500000000003 Q 1.5282891943359378 0.09510000000000002 1.5314391943359378 0.09585000000000002 Q 1.534889194335938 0.09660000000000002 1.534889194335938 0.09825000000000002 Q 1.534889194335938 0.09990000000000003 1.5318891943359378 0.09990000000000003 Q 1.527839194335938 0.09990000000000003 1.525289194335938 0.09945000000000002 Q 1.5219891943359378 0.09915000000000003 1.5195891943359379 0.09915000000000003 Q 1.516889194335938 0.09915000000000003 1.5138891943359378 0.09945000000000002 Q 1.511189194335938 0.09990000000000003 1.5071391943359378 0.09990000000000003 Q 1.504139194335938 0.09990000000000003 1.504139194335938 0.09825000000000002 Q 1.504139194335938 0.09735000000000002 1.5048141943359379 0.09697500000000002 Q 1.5054891943359379 0.09660000000000002 1.506314194335938 0.09630000000000002 Q 1.5071391943359378 0.09600000000000003 1.5075891943359379 0.09585000000000002 Q 1.5110391943359378 0.09480000000000002 1.512614194335938 0.09382500000000002 Q 1.5141891943359378 0.09285000000000003 1.5141891943359378 0.09015000000000002 L 1.5141891943359378 0.05865000000000002 Q 1.5141891943359378 0.05310000000000002 1.510589194335938 0.04875000000000002 Q 1.506989194335938 0.04440000000000002 1.5021891943359378 0.04440000000000002 Q 1.4942391943359379 0.04440000000000002 1.4891391943359378 0.04845000000000002 Q 1.485089194335938 0.051450000000000023 1.485089194335938 0.05925000000000002 L 1.485089194335938 0.09015000000000002 Q 1.485089194335938 0.09285000000000003 1.4866641943359378 0.09382500000000002 Q 1.4882391943359379 0.09480000000000002 1.491539194335938 0.09585000000000002 Q 1.4919891943359378 0.09600000000000003 1.492964194335938 0.09630000000000002 Q 1.493939194335938 0.09660000000000002 1.4944641943359378 0.09705000000000003 Q 1.494989194335938 0.09750000000000003 1.494989194335938 0.09825000000000002 Q 1.494989194335938 0.09990000000000003 1.4919891943359378 0.09990000000000003 Q 1.4880891943359378 0.09990000000000003 1.485539194335938 0.09945000000000002 Q 1.4822391943359379 0.09915000000000003 1.479839194335938 0.09915000000000003 Q 1.477439194335938 0.09915000000000003 1.4741391943359379 0.09945000000000002 Q 1.471739194335938 0.09990000000000003 1.4676891943359378 0.09990000000000003 Q 1.464689194335938 0.09990000000000003 1.464689194335938 0.09825000000000002 M 1.6205024648437505 0.09765000000000003 Q 1.6142774648437506 0.09360000000000003 1.6108274648437504 0.08617500000000003 Q 1.6073774648437504 0.07875000000000001 1.6073774648437504 0.06900000000000002 Q 1.6073774648437504 0.06060000000000002 1.6113524648437505 0.05325000000000002 Q 1.6153274648437506 0.04590000000000002 1.6219274648437505 0.041625000000000016 Q 1.6285274648437504 0.03735000000000002 1.6363274648437505 0.03735000000000002 Q 1.6453274648437506 0.03735000000000002 1.6511024648437505 0.04267500000000002 Q 1.6568774648437505 0.04800000000000002 1.6568774648437505 0.05625000000000002 Q 1.6568774648437505 0.060900000000000024 1.6523774648437506 0.060900000000000024 L 1.6207274648437504 0.060900000000000024 Q 1.6186274648437504 0.060900000000000024 1.6178024648437506 0.06202500000000002 Q 1.6169774648437505 0.06315000000000001 1.6169774648437505 0.06645000000000002 Q 1.6169774648437505 0.07350000000000002 1.6200524648437504 0.07950000000000002 Q 1.6231274648437506 0.08550000000000002 1.6284524648437504 0.08902500000000002 Q 1.6337774648437504 0.09255000000000002 1.6400774648437504 0.09255000000000002 Q 1.6489274648437504 0.09255000000000002 1.6547774648437505 0.08580000000000003 Q 1.6556774648437504 0.08460000000000002 1.6564274648437505 0.08460000000000002 Q 1.6576274648437506 0.08460000000000002 1.6576274648437506 0.08610000000000002 Q 1.6576274648437506 0.08895000000000003 1.6549274648437504 0.09240000000000002 Q 1.6516274648437506 0.09675000000000003 1.6462274648437505 0.09922500000000002 Q 1.6408274648437504 0.10170000000000003 1.6348274648437504 0.10170000000000003 Q 1.6267274648437504 0.10170000000000003 1.6205024648437505 0.09765000000000003 M 1.6346774648437505 0.05625000000000002 Q 1.6417274648437505 0.05625000000000002 1.6457774648437504 0.05550000000000002 Q 1.6469774648437505 0.05535000000000002 1.6469774648437505 0.05220000000000002 Q 1.6469774648437505 0.04785000000000002 1.6431524648437505 0.044775000000000016 Q 1.6393274648437506 0.04170000000000002 1.6340774648437504 0.04170000000000002 Q 1.6307774648437505 0.04170000000000002 1.6272524648437505 0.04372500000000002 Q 1.6237274648437505 0.04575000000000002 1.6214774648437504 0.04875000000000002 Q 1.6192274648437506 0.05175000000000002 1.6192274648437506 0.05475000000000002 Q 1.6192274648437506 0.05625000000000002 1.6210274648437506 0.05625000000000002 L 1.6346774648437505 0.05625000000000002" fill="#404040" fill-rule="nonzero"></path></g><g></g></g><defs><clipPath id="SvgjsClipPath17270"><path d=" M 0 -27.870905312711432 h 27.620905312711432 v 27.620905312711432 h -27.620905312711432 Z"></path></clipPath><clipPath id="SvgjsClipPath17268144a9bd2-af44-407f-8068-f5bb032ccc24"><path d=" M 0 -27.870905312711432 L 27.620905312711432 -27.870905312711432 L 27.620905312711432 -0.25 L 0 -0.25 Z"></path></clipPath></defs></svg>